<svg width="10" height="13" viewBox="0 0 10 13" fill="none" xmlns="http://www.w3.org/2000/svg">
<path fill-rule="evenodd" clip-rule="evenodd" d="M0.917969 5.05543C0.91817 4.27278 1.14329 3.50667 1.56653 2.84833C1.98977 2.18998 2.59329 1.66714 3.30523 1.34206C4.01717 1.01697 4.80755 0.903335 5.58224 1.01468C6.35693 1.12603 7.0833 1.45767 7.67487 1.97011C8.26643 2.48256 8.69827 3.15421 8.91895 3.90511C9.13963 4.656 9.13987 5.4545 8.91963 6.20553C8.69939 6.95656 8.26796 7.62847 7.6767 8.14126C7.08544 8.65405 6.35926 8.98612 5.58464 9.09793V12.0554C5.58464 12.2101 5.52318 12.3585 5.41378 12.4679C5.30439 12.5773 5.15601 12.6388 5.0013 12.6388C4.84659 12.6388 4.69822 12.5773 4.58882 12.4679C4.47943 12.3585 4.41797 12.2101 4.41797 12.0554V9.09793C3.44596 8.95763 2.55708 8.47172 1.91425 7.72925C1.27142 6.98679 0.917717 6.03751 0.917969 5.05543ZM4.38297 4.4371C4.54691 4.27296 4.76932 4.18064 5.0013 4.18043C5.15601 4.18043 5.30439 4.11897 5.41378 4.00958C5.52318 3.90018 5.58464 3.75181 5.58464 3.5971C5.58464 3.44239 5.52318 3.29402 5.41378 3.18462C5.30439 3.07522 5.15601 3.01377 5.0013 3.01377C4.45982 3.01377 3.94051 3.22887 3.55763 3.61176C3.17474 3.99464 2.95964 4.51395 2.95964 5.05543C2.95964 5.21014 3.02109 5.35851 3.13049 5.46791C3.23989 5.57731 3.38826 5.63877 3.54297 5.63877C3.69768 5.63877 3.84605 5.57731 3.95545 5.46791C4.06484 5.35851 4.1263 5.21014 4.1263 5.05543C4.1263 4.82327 4.21847 4.60043 4.38297 4.4371Z" fill="#F84040"/>
</svg>
