<svg width="17" height="12" viewBox="0 0 17 12" fill="none" xmlns="http://www.w3.org/2000/svg">
<path fill-rule="evenodd" clip-rule="evenodd" d="M2.5 0C1.39543 0 0.5 0.895431 0.5 2V9.99625C0.5 11.1008 1.39543 11.9963 2.5 11.9963H14.495C15.5996 11.9963 16.495 11.1008 16.495 9.99625V2C16.495 0.895432 15.5996 0 14.495 0H2.5Z" fill="#2E42A5"/>
<mask id="mask0_1804_50644" style="mask-type:luminance" maskUnits="userSpaceOnUse" x="0" y="0" width="17" height="12">
<path fill-rule="evenodd" clip-rule="evenodd" d="M2.5 0C1.39543 0 0.5 0.895431 0.5 2V9.99625C0.5 11.1008 1.39543 11.9963 2.5 11.9963H14.495C15.5996 11.9963 16.495 11.1008 16.495 9.99625V2C16.495 0.895432 15.5996 0 14.495 0H2.5Z" fill="white"/>
</mask>
<g mask="url(#mask0_1804_50644)">
<path d="M0.941728 9.37236C-0.0599943 10.1688 0.155582 11.747 1.3342 12.2456C1.89349 12.4822 2.53679 12.3998 3.01842 12.0299L16.4451 1.71833C16.5312 1.6522 16.6099 1.57688 16.6797 1.49371C17.4385 0.589707 16.9002 -0.795835 15.7301 -0.950446L15.387 -0.995775C14.9279 -1.05645 14.464 -0.925501 14.1043 -0.633695L8.82058 3.6532L4.11405 6.8502L0.941728 9.37236Z" fill="white"/>
<path d="M0.301907 11.2915C-0.209932 11.7056 -0.116224 12.5116 0.476959 12.7972C0.79236 12.9491 1.16728 12.9036 1.43723 12.6807L16.0422 0.6232C16.6227 0.143951 16.2838 -0.798828 15.531 -0.798828C15.3472 -0.798828 15.169 -0.735755 15.0261 -0.620145L0.301907 11.2915Z" fill="#F50100"/>
<path d="M16.0536 9.37236C17.0553 10.1688 16.8397 11.747 15.6611 12.2456C15.1018 12.4822 14.4585 12.3998 13.9769 12.0299L0.5502 1.71833C0.464084 1.6522 0.385425 1.57688 0.315617 1.49371C-0.443165 0.589707 0.0951408 -0.795835 1.26521 -0.950446L1.60826 -0.995775C2.06741 -1.05645 2.53131 -0.925501 2.89097 -0.633695L8.17472 3.6532L12.8812 6.8502L16.0536 9.37236Z" fill="white"/>
<path d="M17.0628 10.9936C17.5723 11.4105 17.4765 12.2155 16.8834 12.5011C16.5661 12.6539 16.1889 12.6076 15.918 12.3827L9.52576 7.07603C9.32511 6.90945 9.09382 6.78372 8.84491 6.70592L7.44763 6.26919C7.22072 6.19827 7.00828 6.08746 6.82026 5.94196L0.171467 0.79672C-0.410662 0.346234 -0.0920981 -0.585938 0.643981 -0.585938C0.812044 -0.585938 0.975517 -0.531099 1.10958 -0.429747L9.36226 5.80923C9.53118 5.93693 9.71932 6.037 9.91964 6.10569L11.5923 6.67925C11.817 6.7563 12.0262 6.87277 12.21 7.0232L17.0628 10.9936Z" fill="#F50100"/>
<path fill-rule="evenodd" clip-rule="evenodd" d="M10.386 0.889385C10.386 -0.153554 9.54054 -0.999023 8.4976 -0.999023C7.45466 -0.999023 6.60919 -0.153554 6.60919 0.889386V1.99942C6.60919 3.10398 5.71376 3.99941 4.60919 3.99941H1.51378C0.409554 3.99941 -0.485596 4.89457 -0.485596 5.99879C-0.485596 7.10301 0.409555 7.99817 1.51378 7.99817H4.60919C5.71376 7.99817 6.60919 8.8936 6.60919 9.99817V11.1082C6.60919 12.1511 7.45466 12.9966 8.4976 12.9966C9.54054 12.9966 10.386 12.1511 10.386 11.1082V9.99817C10.386 8.8936 11.2814 7.99817 12.386 7.99817H15.5094C16.6136 7.99817 17.5088 7.10301 17.5088 5.99879C17.5088 4.89457 16.6136 3.99941 15.5094 3.99941H12.386C11.2814 3.99941 10.386 3.10398 10.386 1.99942V0.889385Z" fill="#F50100"/>
<mask id="mask1_1804_50644" style="mask-type:luminance" maskUnits="userSpaceOnUse" x="-1" y="-1" width="19" height="14">
<path fill-rule="evenodd" clip-rule="evenodd" d="M10.386 0.889385C10.386 -0.153554 9.54054 -0.999023 8.4976 -0.999023C7.45466 -0.999023 6.60919 -0.153554 6.60919 0.889386V1.99942C6.60919 3.10398 5.71376 3.99941 4.60919 3.99941H1.51378C0.409554 3.99941 -0.485596 4.89457 -0.485596 5.99879C-0.485596 7.10301 0.409555 7.99817 1.51378 7.99817H4.60919C5.71376 7.99817 6.60919 8.8936 6.60919 9.99817V11.1082C6.60919 12.1511 7.45466 12.9966 8.4976 12.9966C9.54054 12.9966 10.386 12.1511 10.386 11.1082V9.99817C10.386 8.8936 11.2814 7.99817 12.386 7.99817H15.5094C16.6136 7.99817 17.5088 7.10301 17.5088 5.99879C17.5088 4.89457 16.6136 3.99941 15.5094 3.99941H12.386C11.2814 3.99941 10.386 3.10398 10.386 1.99942V0.889385Z" fill="white"/>
</mask>
<g mask="url(#mask1_1804_50644)">
<path d="M6.60912 -1.99902C6.60912 -1.44691 6.16154 -0.999336 5.60943 -0.999336C5.60943 -1.55145 6.05701 -1.99902 6.60912 -1.99902ZM11.3856 -0.999336C10.8335 -0.999336 10.3859 -1.44691 10.3859 -1.99902C10.9381 -1.99902 11.3856 -1.55145 11.3856 -0.999336ZM6.60912 4.99879C6.60912 4.44668 7.05669 3.9991 7.60881 3.9991C7.60881 4.55121 7.16123 4.99879 6.60912 4.99879ZM-0.485664 2.99941C-0.485664 3.55153 -0.93324 3.9991 -1.48535 3.9991C-1.48535 3.44699 -1.03778 2.99941 -0.485664 2.99941ZM-1.48535 7.99785C-0.93324 7.99785 -0.485664 8.44543 -0.485664 8.99754C-1.03778 8.99754 -1.48535 8.54996 -1.48535 7.99785ZM7.60881 7.99785C7.05669 7.99785 6.60912 7.55028 6.60912 6.99817C7.16123 6.99817 7.60881 7.44574 7.60881 7.99785ZM5.60943 12.9963C6.16154 12.9963 6.60912 13.4439 6.60912 13.996C6.05701 13.996 5.60943 13.5484 5.60943 12.9963ZM10.3859 13.996C10.3859 13.4439 10.8335 12.9963 11.3856 12.9963C11.3856 13.5484 10.9381 13.996 10.3859 13.996ZM10.3859 6.99817C10.3859 7.55028 9.93836 7.99785 9.38625 7.99785C9.38625 7.44574 9.83383 6.99817 10.3859 6.99817ZM17.5087 8.99754C17.5087 8.44543 17.9563 7.99785 18.5084 7.99785C18.5084 8.54996 18.0608 8.99754 17.5087 8.99754ZM18.5084 3.9991C17.9563 3.9991 17.5087 3.55153 17.5087 2.99941C18.0608 2.99941 18.5084 3.44699 18.5084 3.9991ZM9.38625 3.9991C9.93836 3.9991 10.3859 4.44668 10.3859 4.99879C9.83383 4.99879 9.38625 4.55121 9.38625 3.9991ZM6.60912 -1.88806C6.60912 -0.845119 7.45459 0.000351787 8.49753 0.000351787C9.54047 0.000351787 10.3859 -0.845119 10.3859 -1.88806V-1.99902H6.60912V-1.88806ZM7.60881 3.9991V1.00004C7.60881 -0.104186 6.71366 -0.999336 5.60943 -0.999336V1.99973C5.60943 3.10395 6.50458 3.9991 7.60881 3.9991ZM-0.485664 2.99941C-0.485664 4.10364 0.409487 4.99879 1.51371 4.99879H6.60912C6.60912 3.89457 5.71397 2.99941 4.60975 2.99941H-0.485664ZM-1.48535 7.99785C-0.381127 7.99785 0.514024 7.1027 0.514024 5.99848C0.514024 4.89425 -0.381127 3.9991 -1.48535 3.9991V7.99785ZM6.60912 6.99817H1.51371C0.409486 6.99817 -0.485664 7.89332 -0.485664 8.99754H4.60975C5.71397 8.99754 6.60912 8.10239 6.60912 6.99817ZM5.60943 12.9963C6.71366 12.9963 7.60881 12.1011 7.60881 10.9969V7.99785C6.50458 7.99785 5.60943 8.893 5.60943 9.99723V12.9963ZM10.3859 13.885C10.3859 12.8421 9.54047 11.9966 8.49753 11.9966C7.45459 11.9966 6.60912 12.8421 6.60912 13.885V13.996H10.3859V13.885ZM9.38625 7.99785V10.9969C9.38625 12.1011 10.2814 12.9963 11.3856 12.9963V9.99723C11.3856 8.893 10.4905 7.99785 9.38625 7.99785ZM17.5087 8.99754C17.5087 7.89332 16.6136 6.99817 15.5093 6.99817H10.3859C10.3859 8.10239 11.2811 8.99754 12.3853 8.99754H17.5087ZM18.5084 3.9991C17.4042 3.9991 16.509 4.89425 16.509 5.99848C16.509 7.1027 17.4042 7.99785 18.5084 7.99785V3.9991ZM10.3859 4.99879H15.5093C16.6136 4.99879 17.5087 4.10364 17.5087 2.99941H12.3853C11.2811 2.99941 10.3859 3.89457 10.3859 4.99879ZM11.3856 -0.999336C10.2814 -0.999336 9.38625 -0.104186 9.38625 1.00004V3.9991C10.4905 3.9991 11.3856 3.10395 11.3856 1.99973V-0.999336Z" fill="white"/>
</g>
</g>
</svg>
