<svg width="12" height="12" viewBox="0 0 12 12" fill="none" xmlns="http://www.w3.org/2000/svg">
<g clip-path="url(#clip0_1974_59305)">
<path d="M2.0443 0.144531H9.49205C10.6178 0.144531 11.5364 1.05411 11.5364 2.18883V9.3484C11.5364 10.4741 10.6268 11.3927 9.49205 11.3927H2.0443C0.90958 11.3837 0 10.4741 0 9.33939V2.18883C0 1.05411 0.90958 0.144531 2.0443 0.144531Z" fill="#330000"/>
<path d="M5.57459 6.87137H3.78245L3.42222 7.99709C3.41321 8.04211 3.37719 8.06913 3.33216 8.06013H2.43159C2.37755 8.06013 2.36855 8.03311 2.37755 7.97007L3.92654 3.52123C3.94455 3.47621 3.95356 3.42217 3.97157 3.35913C3.98958 3.26007 3.99859 3.152 3.99859 3.04393C3.98958 3.01691 4.0166 2.9989 4.03461 2.9899H5.2774C5.31342 2.9899 5.33144 3.00791 5.34044 3.02592L7.09656 7.97007C7.11457 8.0241 7.09656 8.05112 7.05153 8.05112H6.04289C6.00687 8.06013 5.97985 8.03311 5.96184 7.99709L5.57459 6.87137ZM4.06163 5.88974H5.2774C5.25038 5.79068 5.21436 5.6646 5.16933 5.54752C5.1243 5.42144 5.07928 5.27735 5.04325 5.13326C4.99822 4.98016 4.9532 4.83607 4.90817 4.69198C4.86314 4.53888 4.81811 4.4038 4.78209 4.26871C4.74606 4.13362 4.71004 4.00754 4.67402 3.89047H4.66501C4.61998 4.0976 4.56595 4.30473 4.50291 4.51187C4.43086 4.74601 4.35882 4.98016 4.27776 5.22332C4.20572 5.46647 4.13367 5.69162 4.06163 5.88974ZM8.16824 3.84544C8.00614 3.85445 7.85304 3.79141 7.74497 3.67433C7.6369 3.55726 7.57386 3.39515 7.58287 3.23305C7.57386 3.07095 7.6369 2.91785 7.75398 2.80978C7.87105 2.70171 8.02415 2.63867 8.17725 2.63867C8.36637 2.63867 8.51046 2.69271 8.61853 2.80978C8.7266 2.92686 8.78063 3.07995 8.78063 3.23305C8.78964 3.39515 8.7266 3.55726 8.60952 3.67433C8.49245 3.79141 8.33035 3.85445 8.16824 3.84544ZM7.6279 8.0151V4.31374C7.6279 4.26871 7.64591 4.2507 7.69094 4.2507H8.64555C8.69058 4.2507 8.70859 4.27772 8.70859 4.31374V8.0151C8.70859 8.06913 8.69058 8.09615 8.64555 8.09615H7.69994C7.65492 8.08714 7.6279 8.06013 7.6279 8.0151Z" fill="#FF9A00"/>
</g>
<defs>
<clipPath id="clip0_1974_59305">
<rect width="11.5273" height="11.5273" fill="white"/>
</clipPath>
</defs>
</svg>
