<svg width="13" height="13" viewBox="0 0 13 13" fill="none" xmlns="http://www.w3.org/2000/svg">
<g clip-path="url(#clip0_1923_54058)">
<path d="M4.62109 13.1016C5.82969 13.1016 6.80469 12.1266 6.80469 10.918V8.73438H4.62109C3.4125 8.73438 2.4375 9.70938 2.4375 10.918C2.4375 12.1266 3.4125 13.1016 4.62109 13.1016Z" fill="#0ACF83"/>
<path d="M2.4375 6.55078C2.4375 5.34219 3.4125 4.36719 4.62109 4.36719H6.80469V8.73438H4.62109C3.4125 8.73438 2.4375 7.75937 2.4375 6.55078Z" fill="#A259FF"/>
<path d="M2.4375 2.18359C2.4375 0.975 3.4125 0 4.62109 0H6.80469V4.36719H4.62109C3.4125 4.36719 2.4375 3.39219 2.4375 2.18359Z" fill="#F24E1E"/>
<path d="M6.80469 0H8.98828C10.1969 0 11.1719 0.975 11.1719 2.18359C11.1719 3.39219 10.1969 4.36719 8.98828 4.36719H6.80469V0Z" fill="#FF7262"/>
<path d="M11.1719 6.55078C11.1719 7.75937 10.1969 8.73438 8.98828 8.73438C7.77969 8.73438 6.80469 7.75937 6.80469 6.55078C6.80469 5.34219 7.77969 4.36719 8.98828 4.36719C10.1969 4.36719 11.1719 5.34219 11.1719 6.55078Z" fill="#1ABCFE"/>
</g>
<defs>
<clipPath id="clip0_1923_54058">
<rect width="13" height="13" fill="white"/>
</clipPath>
</defs>
</svg>
