<svg width="12" height="12" viewBox="0 0 12 12" fill="none" xmlns="http://www.w3.org/2000/svg">
<g clip-path="url(#clip0_1923_54077)">
<path d="M2.04133 0.144531H9.48601C10.6148 0.144531 11.5273 1.05708 11.5273 2.18586V9.34236C11.5273 10.4711 10.6148 11.3837 9.48601 11.3837H2.04133C0.912551 11.3837 0 10.4711 0 9.34236V2.18586C0 1.05708 0.912551 0.144531 2.04133 0.144531Z" fill="#470137"/>
<path d="M6.06142 3.09807L4.62051 5.47559L6.15743 7.99719C6.16706 8.01638 6.17183 8.03565 6.16706 8.05483C6.16229 8.07401 6.14302 8.0596 6.1142 8.06447H5.01433C4.93751 8.06447 4.88464 8.0596 4.85105 8.0116C4.75019 7.80987 4.64446 7.61292 4.5436 7.41119C4.44273 7.21433 4.33232 7.0126 4.21705 6.80601C4.10178 6.59941 3.9865 6.393 3.87123 6.18164H3.86159C3.76073 6.38814 3.65023 6.59473 3.53982 6.80123C3.43006 7.0057 3.32118 7.21065 3.21318 7.41605C3.10268 7.61778 2.99227 7.82428 2.88177 8.02124C2.86259 8.06924 2.82413 8.07401 2.77127 8.07401H1.71462C1.69544 8.07401 1.68103 8.08365 1.68103 8.0596C1.67888 8.05063 1.67862 8.0413 1.68026 8.03221C1.68191 8.02313 1.68542 8.01449 1.69058 8.00683L3.18436 5.55727L1.72903 3.0933C1.71462 3.07403 1.70985 3.05485 1.7194 3.04521C1.72903 3.0308 1.74822 3.02603 1.76749 3.02603H2.85772C2.88177 3.02603 2.90581 3.0308 2.925 3.03566C2.94418 3.04521 2.95859 3.05962 2.973 3.07889C3.06431 3.28539 3.16995 3.49189 3.28045 3.69849C3.39573 3.90499 3.50614 4.10672 3.62627 4.30844C3.74155 4.51017 3.84718 4.7119 3.94805 4.9184H3.95768C4.05855 4.70713 4.16419 4.50054 4.26982 4.29881C4.37546 4.09708 4.48596 3.89535 4.59646 3.69362C4.70696 3.49189 4.8126 3.28539 4.91824 3.08844C4.9231 3.06925 4.93264 3.05007 4.94705 3.04044C4.96633 3.0308 4.98551 3.02603 5.00955 3.0308H6.02297C6.02865 3.02951 6.03454 3.02937 6.04028 3.03037C6.04602 3.03137 6.05151 3.03349 6.05642 3.03662C6.06134 3.03976 6.06558 3.04383 6.06891 3.04861C6.07225 3.05339 6.0746 3.05879 6.07583 3.06448C6.08061 3.06925 6.07097 3.08844 6.06142 3.09807ZM8.28044 8.16533C7.92498 8.1701 7.56953 8.09806 7.24775 7.94919C6.94516 7.80987 6.69543 7.57933 6.52252 7.29592C6.34474 7.00296 6.25829 6.63796 6.25829 6.20082C6.25352 5.84545 6.34474 5.49477 6.52252 5.1874C6.70497 4.87517 6.9692 4.61581 7.2862 4.4429C7.62239 4.25558 8.02585 4.16435 8.50135 4.16435C8.52539 4.16435 8.55898 4.16435 8.60221 4.16913C8.64544 4.17399 8.69344 4.17399 8.75108 4.17876V2.66102C8.75108 2.62734 8.76549 2.60816 8.79917 2.60816H9.77413C9.79817 2.60339 9.81736 2.62257 9.82222 2.64175V7.22387C9.82222 7.31033 9.82699 7.40642 9.83177 7.51206C9.8414 7.61292 9.84618 7.70901 9.85104 7.79069C9.85104 7.82428 9.83663 7.8531 9.80295 7.86751C9.55139 7.97326 9.2888 8.05059 9.02008 8.09806C8.77512 8.14129 8.53017 8.16533 8.28044 8.16533ZM8.75108 7.20469V5.09131C8.70785 5.08177 8.66462 5.07213 8.62139 5.06736C8.56874 5.06169 8.51585 5.05848 8.46289 5.05772C8.27557 5.05772 8.08825 5.09618 7.92021 5.18263C7.75607 5.2644 7.61552 5.38671 7.51189 5.538C7.40625 5.69173 7.35339 5.89823 7.35339 6.14805C7.34929 6.31661 7.377 6.48443 7.43507 6.64273C7.48307 6.77241 7.55512 6.88769 7.65121 6.98378C7.74378 7.07218 7.85559 7.13793 7.97784 7.17587C8.10753 7.2191 8.24198 7.23828 8.37644 7.23828C8.44848 7.23828 8.51576 7.23351 8.57817 7.22873C8.64067 7.23351 8.69344 7.22387 8.75108 7.20469Z" fill="#FF61F6"/>
</g>
<defs>
<clipPath id="clip0_1923_54077">
<rect width="11.5273" height="11.5273" fill="white"/>
</clipPath>
</defs>
</svg>
