<svg width="12" height="12" viewBox="0 0 12 12" fill="none" xmlns="http://www.w3.org/2000/svg">
<g clip-path="url(#clip0_1974_59299)">
<path d="M2.04133 0.144531H9.48601C10.6148 0.144531 11.5273 1.05708 11.5273 2.18586V9.34236C11.5273 10.4711 10.6148 11.3837 9.48601 11.3837H2.04133C0.912551 11.3837 0 10.4711 0 9.34236V2.18586C0 1.05708 0.912551 0.144531 2.04133 0.144531Z" fill="#001E36"/>
<path d="M4.13076 3.00195C3.98667 3.00195 3.84258 3.00195 3.69371 3.00682C3.54476 3.01159 3.40544 3.01159 3.27575 3.01645C3.14607 3.02123 3.02603 3.02123 2.91075 3.026C2.80025 3.03077 2.72343 3.03077 2.64175 3.03077C2.60816 3.03077 2.59375 3.04995 2.59375 3.08364V8.02598C2.59375 8.06921 2.61293 8.08848 2.65139 8.08848H3.58321C3.6168 8.08362 3.64085 8.0548 3.63598 8.02121V6.47943C3.72721 6.47943 3.79448 6.47943 3.84258 6.4842C3.89058 6.48897 3.9674 6.48897 4.08267 6.48897C4.47658 6.48897 4.83681 6.44575 5.16336 6.3257C5.47559 6.21043 5.74459 6.0087 5.93668 5.7397C6.1288 5.47073 6.22486 5.12971 6.22486 4.71665C6.22486 4.50051 6.1865 4.29401 6.11445 4.09228C6.03811 3.88676 5.91852 3.70003 5.76377 3.54473C5.58112 3.36728 5.36125 3.23272 5.12013 3.15082C4.85113 3.04995 4.52458 3.00195 4.13076 3.00195ZM4.23793 3.94801C4.40904 3.95125 4.57564 3.98115 4.73108 4.04419C4.8704 4.09705 4.98567 4.19314 5.06736 4.31796C5.14396 4.44714 5.18228 4.59543 5.17786 4.74555C5.17786 4.95683 5.12977 5.12019 5.0289 5.24024C4.92317 5.36029 4.78872 5.4516 4.63508 5.49483C4.45731 5.55247 4.26999 5.5812 4.08267 5.5812H3.82808C3.77044 5.5812 3.70812 5.57642 3.64085 5.57165V3.95782C3.67444 3.95296 3.74171 3.94819 3.8378 3.95305C3.92903 3.94819 4.03944 3.94819 4.16435 3.94819C4.18897 3.94759 4.21349 3.94753 4.23793 3.94801ZM8.26619 4.19323C7.92515 4.19323 7.64174 4.24601 7.41605 4.36128C7.20955 4.45737 7.03178 4.61101 6.91173 4.8031C6.80609 4.98087 6.74837 5.17774 6.74837 5.38433C6.74426 5.55425 6.78222 5.72254 6.85887 5.87424C6.9487 6.03577 7.07342 6.17524 7.22396 6.28247C7.43525 6.42699 7.66453 6.54324 7.90596 6.62829C8.14128 6.71952 8.29979 6.79157 8.37669 6.85398C8.45351 6.91648 8.49197 6.97889 8.49197 7.04616C8.49197 7.13261 8.4391 7.2143 8.36229 7.24789C8.27583 7.29112 8.14615 7.31516 7.9636 7.31516C7.77151 7.31516 7.57933 7.29112 7.39678 7.24312C7.18718 7.1963 6.98622 7.1169 6.80123 7.0078C6.78682 6.99816 6.77241 6.99339 6.758 7.00302C6.74359 7.01257 6.73882 7.03175 6.73882 7.04616V7.88189C6.73405 7.92035 6.758 7.95394 6.79168 7.97312C6.94744 8.04588 7.11219 8.09758 7.2816 8.12685C7.49773 8.17008 7.71378 8.18926 7.93469 8.18926C8.28051 8.18926 8.56879 8.13648 8.80411 8.03562C9.02024 7.94916 9.20756 7.8003 9.34202 7.60812C9.46795 7.41919 9.53329 7.19636 9.52934 6.96934C9.53408 6.79785 9.49614 6.62786 9.41893 6.47466C9.32761 6.31129 9.19793 6.17684 9.03943 6.07597C8.80755 5.93036 8.55928 5.81265 8.29979 5.72529C8.1839 5.67733 8.07012 5.62444 7.95874 5.56679C7.89633 5.5332 7.83869 5.48997 7.79546 5.4371C7.76665 5.39865 7.74746 5.35551 7.74746 5.31228C7.74746 5.26906 7.76187 5.22106 7.78583 5.1826C7.81951 5.1346 7.87228 5.10092 7.93469 5.08651C8.02601 5.06256 8.12687 5.04806 8.22288 5.05283C8.40542 5.05283 8.58311 5.07687 8.76088 5.11533C8.92424 5.14892 9.07788 5.20178 9.22197 5.27869C9.24116 5.28824 9.2652 5.28824 9.30843 5.27869C9.31593 5.27313 9.32202 5.26588 9.3262 5.25752C9.33038 5.24917 9.33253 5.23994 9.33247 5.2306V4.44773C9.33247 4.42846 9.32761 4.40928 9.32284 4.3901C9.3132 4.37092 9.29402 4.35164 9.27484 4.34687C9.14236 4.29273 9.00356 4.2556 8.86174 4.23637C8.66453 4.20765 8.46549 4.1933 8.26619 4.19323Z" fill="#31A8FF"/>
</g>
<defs>
<clipPath id="clip0_1974_59299">
<rect width="11.5273" height="11.5273" fill="white"/>
</clipPath>
</defs>
</svg>
