<svg width="12" height="12" viewBox="0 0 12 12" fill="none" xmlns="http://www.w3.org/2000/svg">
<g clip-path="url(#clip0_1974_59317)">
<path d="M9.84728 0H1.96258C0.880294 0 0.00292969 0.877365 0.00292969 1.95965V9.54925C0.00292969 10.6315 0.880294 11.5089 1.96258 11.5089H9.84728C10.9296 11.5089 11.8069 10.6315 11.8069 9.54925V1.95965C11.8069 0.877365 10.9296 0 9.84728 0Z" fill="#49021F"/>
<path d="M4.28952 3.01088V8.05497C4.28952 8.10778 4.26576 8.13419 4.21824 8.13419H3.26009C3.21779 8.13419 3.19669 8.10778 3.19678 8.05497V3.01088C3.19678 2.96868 3.22052 2.94756 3.26802 2.94753H4.22617C4.23423 2.94639 4.24244 2.94702 4.25023 2.94937C4.25802 2.95172 4.2652 2.95574 4.27128 2.96115C4.27735 2.96657 4.28218 2.97324 4.28542 2.9807C4.28866 2.98817 4.29023 2.99625 4.29003 3.00438L4.28952 3.01088ZM7.17532 8.21285L7.12433 8.21336C6.75987 8.21892 6.39874 8.14318 6.06722 7.99166C5.75838 7.84872 5.5002 7.61539 5.32685 7.32252C5.15169 7.03161 5.06199 6.66903 5.05775 6.2348L5.05761 6.20207C5.05464 5.83863 5.14752 5.48084 5.32689 5.16474C5.50669 4.85141 5.76891 4.59333 6.08507 4.41856L6.1108 4.40454C6.45385 4.21451 6.86825 4.11949 7.354 4.11949L7.36423 4.11954L7.38697 4.12004L7.4127 4.12106L7.44142 4.12253L7.4731 4.12452L7.50773 4.12705L7.58598 4.13346L7.60737 4.13531V2.57543C7.60737 2.53851 7.6232 2.52002 7.65486 2.51996H8.65262C8.65908 2.51903 8.66566 2.51962 8.67184 2.52168C8.67802 2.52374 8.68364 2.52721 8.68825 2.53182C8.69286 2.53643 8.69633 2.54205 8.69839 2.54823C8.70045 2.55442 8.70104 2.561 8.70012 2.56745V7.24732C8.70043 7.34509 8.70439 7.44282 8.71201 7.5403L8.71948 7.64239L8.72608 7.73742L8.73179 7.82535C8.73277 7.8418 8.72876 7.85816 8.72029 7.87229C8.71181 7.88643 8.69927 7.89768 8.6843 7.90456C8.4269 8.0119 8.1588 8.09152 7.88453 8.14207C7.65052 8.1853 7.41331 8.20898 7.17537 8.21285M7.60742 7.23146V5.06971C7.56462 5.05812 7.52092 5.05017 7.47679 5.04597C7.42284 5.04052 7.36866 5.03787 7.31444 5.03804C7.12225 5.03614 6.93237 5.07953 6.76016 5.16474C6.59242 5.24819 6.44919 5.37369 6.34443 5.52901C6.23617 5.68735 6.18205 5.89587 6.18208 6.15457C6.17825 6.32717 6.20644 6.49899 6.26522 6.66132C6.31308 6.79213 6.38873 6.91101 6.48696 7.00976C6.58099 7.10062 6.69484 7.16839 6.81955 7.20771C6.95125 7.25034 7.0889 7.27174 7.22734 7.27111C7.3012 7.27111 7.36983 7.26845 7.43321 7.26314C7.48378 7.25933 7.5339 7.251 7.58298 7.23824L7.60742 7.23146Z" fill="#FF3366"/>
</g>
<defs>
<clipPath id="clip0_1974_59317">
<rect width="11.81" height="11.5273" fill="white"/>
</clipPath>
</defs>
</svg>
