<svg width="16" height="16" viewBox="0 0 16 16" fill="none" xmlns="http://www.w3.org/2000/svg">
<path d="M8.30021 8.71021C8.31468 8.48448 8.37541 8.26413 8.47863 8.06286C8.58184 7.86159 8.72534 7.68369 8.90021 7.54021C9.26197 7.23804 9.71885 7.07335 10.1902 7.07521C10.6616 7.07335 11.1184 7.23804 11.4802 7.54021C11.6551 7.68369 11.7986 7.86159 11.9018 8.06286C12.005 8.26413 12.0657 8.48448 12.0802 8.71021C12.1052 9.18521 11.9102 9.63521 11.5752 9.96021C11.2252 10.3002 10.7402 10.5102 10.1902 10.5102C9.64021 10.5102 9.14521 10.3002 8.80021 9.96021C8.63212 9.79988 8.50048 9.60528 8.41421 9.38961C8.32794 9.17394 8.28906 8.94223 8.30021 8.71021Z" fill="#0E548B"/>
<path d="M5.28977 9.65034C5.28977 9.83534 5.34977 10.1903 5.43977 10.4653C5.62717 11.063 5.94286 11.6124 6.36477 12.0753C6.81816 12.5752 7.37188 12.9739 7.98977 13.2453C8.65477 13.5353 9.37977 13.6853 10.1248 13.6853C10.8601 13.6865 11.5875 13.5332 12.2598 13.2353C12.8769 12.9626 13.4304 12.5641 13.8848 12.0653C14.5142 11.3683 14.9002 10.4857 14.9848 9.55034C15.0088 9.25365 15.0004 8.95522 14.9598 8.66034C14.8778 8.08288 14.6751 7.52918 14.3648 7.03534C14.0791 6.57709 13.7133 6.17399 13.2848 5.84534L8.91477 2.48534L8.89977 2.48034C8.73951 2.37222 8.55059 2.31445 8.35727 2.31445C8.16395 2.31445 7.97503 2.37222 7.81477 2.48034C7.49977 2.70534 7.46477 3.07034 7.74477 3.30534L9.56977 4.79034L4.00977 4.79534H3.99977C3.53977 4.79534 3.09977 5.09534 3.01477 5.48034C2.92477 5.86534 3.23477 6.19034 3.71477 6.19034H6.52977L1.49977 10.0403L1.47977 10.0553C1.00977 10.4203 0.85477 11.0253 1.15477 11.4053C1.45477 11.7953 2.10477 11.7953 2.57977 11.4053L5.32477 9.16034C5.32477 9.16034 5.28477 9.46034 5.28977 9.64534M12.3398 10.6603C12.0493 10.9509 11.7038 11.1805 11.3234 11.3359C10.9431 11.4913 10.5356 11.5693 10.1248 11.5653C9.26977 11.5653 8.47477 11.2453 7.90977 10.6653C7.64536 10.3981 7.44083 10.0777 7.30977 9.72534C7.18563 9.38663 7.13783 9.02467 7.16977 8.66534C7.19897 8.31632 7.30118 7.97733 7.46977 7.67034C7.64148 7.36292 7.87063 7.09133 8.14477 6.87034C8.69477 6.42034 9.39477 6.18034 10.1248 6.18034C10.8598 6.18034 11.5548 6.42034 12.1048 6.86534C12.3789 7.08633 12.6081 7.35792 12.7798 7.66534C12.9477 7.97082 13.0499 8.30804 13.0798 8.65534C13.1133 9.0143 13.0672 9.37625 12.9448 9.71534C12.8135 10.0717 12.6072 10.3957 12.3398 10.6653" fill="#F4792B"/>
</svg>
